<svg width="20" height="20" viewBox="0 0 20 20" fill="none" xmlns="http://www.w3.org/2000/svg">
<path fill-rule="evenodd" clip-rule="evenodd" d="M10.4167 2.29166C10.2252 2.29166 10.0355 2.32939 9.85859 2.40267C9.68166 2.47596 9.5209 2.58338 9.38548 2.7188C9.25006 2.85422 9.14264 3.01498 9.06935 3.19192C8.99606 3.36885 8.95834 3.55849 8.95834 3.75C8.95834 3.94151 8.99606 4.13114 9.06935 4.30808C9.14264 4.48501 9.25006 4.64578 9.38548 4.78119C9.5209 4.91661 9.68166 5.02403 9.85859 5.09732C10.0355 5.17061 10.2252 5.20833 10.4167 5.20833C10.8034 5.20833 11.1744 5.05469 11.4479 4.78119C11.7214 4.5077 11.875 4.13677 11.875 3.75C11.875 3.36322 11.7214 2.99229 11.4479 2.7188C11.1744 2.44531 10.8034 2.29166 10.4167 2.29166ZM7.70834 3.75C7.70834 3.0317 7.99368 2.34283 8.50159 1.83492C9.0095 1.32701 9.69838 1.04166 10.4167 1.04166C11.135 1.04166 11.8238 1.32701 12.3318 1.83492C12.8397 2.34283 13.125 3.0317 13.125 3.75C13.125 4.46829 12.8397 5.15717 12.3318 5.66508C11.8238 6.17299 11.135 6.45833 10.4167 6.45833C9.69838 6.45833 9.0095 6.17299 8.50159 5.66508C7.99368 5.15717 7.70834 4.46829 7.70834 3.75ZM11.2733 8.96083C11.2017 8.95786 11.13 8.95702 11.0583 8.95833H10.1492L10.0733 9.71833C9.92834 11.1683 9.87751 11.7517 10.0067 12.3025C10.1367 12.8542 10.4417 13.3533 11.2175 14.5875L13.3625 18.0008C13.4484 18.1411 13.4756 18.3096 13.438 18.4698C13.4005 18.63 13.3013 18.7689 13.162 18.8565C13.0227 18.944 12.8546 18.9731 12.6939 18.9374C12.5333 18.9017 12.3933 18.8041 12.3042 18.6658L10.1592 15.2525L10.0983 15.1558C9.40251 14.05 8.97334 13.3675 8.79001 12.5892C8.60667 11.81 8.68751 11.0075 8.81834 9.70666L8.82917 9.59333L8.89251 8.95916C8.47584 8.96166 8.16584 8.96916 7.91751 9C7.60251 9.0375 7.45584 9.10416 7.35167 9.1875C7.24834 9.27083 7.15167 9.39916 7.04584 9.69833C6.93501 10.0125 6.83917 10.4383 6.69667 11.0792L6.44334 12.2192C6.40543 12.379 6.30612 12.5175 6.16689 12.6047C6.02766 12.6918 5.85971 12.7207 5.69937 12.685C5.53903 12.6493 5.39919 12.5519 5.31011 12.4139C5.22102 12.2759 5.18985 12.1083 5.22334 11.9475L5.48501 10.7717C5.61667 10.1767 5.72834 9.67666 5.86751 9.28166C6.01501 8.86333 6.21667 8.49583 6.57001 8.2125C6.92334 7.92916 7.32501 7.8125 7.76584 7.75833C8.18167 7.70833 8.69417 7.70833 9.30334 7.70833H11.0792C11.1925 7.70833 11.28 7.70833 11.3625 7.71416C11.8164 7.74666 12.2504 7.91358 12.6091 8.19363C12.9678 8.47368 13.235 8.85419 13.3767 9.28666C13.4017 9.365 13.4233 9.45083 13.4517 9.56083L13.4558 9.58083C13.5025 9.7675 13.5167 9.82083 13.53 9.8575C13.705 10.3625 14.2342 10.6533 14.7542 10.53C14.7925 10.5217 14.845 10.5042 15.0275 10.4433L15.6358 10.2408C15.791 10.1956 15.9577 10.2122 16.1009 10.2872C16.2441 10.3622 16.3526 10.4898 16.4038 10.6432C16.4549 10.7965 16.4446 10.9637 16.3751 11.1097C16.3055 11.2556 16.1821 11.3689 16.0308 11.4258L15.4225 11.6292L15.3958 11.6375C15.2796 11.6786 15.1618 11.7147 15.0425 11.7458C14.4902 11.8767 13.909 11.798 13.4114 11.5249C12.9138 11.2517 12.5353 10.8037 12.3492 10.2675C12.3111 10.1501 12.278 10.0311 12.25 9.91083L12.2433 9.88333C12.2271 9.81335 12.2088 9.74388 12.1883 9.675C12.1239 9.47861 12.0025 9.30583 11.8395 9.17866C11.6766 9.05149 11.4795 8.97566 11.2733 8.96083ZM8.68001 14.0633C8.81791 14.1553 8.91365 14.2982 8.94615 14.4608C8.97866 14.6233 8.94527 14.7921 8.85334 14.93L6.35334 18.68C6.30825 18.7493 6.24987 18.8089 6.18157 18.8555C6.11328 18.902 6.03643 18.9346 5.95547 18.9512C5.87451 18.9679 5.79105 18.9683 5.70992 18.9525C5.6288 18.9367 5.55161 18.9049 5.48284 18.8591C5.41407 18.8132 5.35507 18.7542 5.30927 18.6854C5.26347 18.6166 5.23177 18.5394 5.216 18.4583C5.20024 18.3771 5.20072 18.2937 5.21743 18.2127C5.23414 18.1318 5.26674 18.0549 5.31334 17.9867L7.81334 14.2367C7.90529 14.0988 8.04825 14.003 8.21078 13.9705C8.37331 13.938 8.54209 13.9714 8.68001 14.0633Z" fill="currentColor"/>
</svg>
