<svg width="20" height="20" viewBox="0 0 20 20" fill="none" xmlns="http://www.w3.org/2000/svg">
<path d="M16.5 3.5C16.5 4.03043 16.2893 4.53914 15.9142 4.91421C15.5391 5.28929 15.0304 5.5 14.5 5.5C13.9696 5.5 13.4609 5.28929 13.0858 4.91421C12.7107 4.53914 12.5 4.03043 12.5 3.5C12.5 2.96957 12.7107 2.46086 13.0858 2.08579C13.4609 1.71071 13.9696 1.5 14.5 1.5C15.0304 1.5 15.5391 1.71071 15.9142 2.08579C16.2893 2.46086 16.5 2.96957 16.5 3.5Z" stroke="black"/>
<path fill-rule="evenodd" clip-rule="evenodd" d="M8.16835 4.94167C8.36713 4.91149 8.56824 4.8995 8.76919 4.90583C8.83585 4.90917 8.91085 4.91417 8.99669 4.9225C10.9825 5.12917 12.455 6.61917 13.4367 8.09083L13.4892 8.16917C13.7365 8.5401 14.0716 8.84423 14.4647 9.05459C14.8578 9.26494 15.2967 9.375 15.7425 9.375H17.2917C17.4574 9.375 17.6164 9.44085 17.7336 9.55806C17.8508 9.67527 17.9167 9.83424 17.9167 10C17.9167 10.1658 17.8508 10.3247 17.7336 10.4419C17.6164 10.5592 17.4574 10.625 17.2917 10.625H15.7417C15.0901 10.625 14.4486 10.4641 13.8741 10.1566C13.2995 9.84919 12.8098 9.40465 12.4484 8.8625L12.3967 8.78417C12.1748 8.44871 11.9309 8.12828 11.6667 7.825L10.0967 9.7875C9.74002 10.2325 9.50169 10.5325 9.34085 10.7792C9.18419 11.0175 9.14002 11.15 9.12835 11.2508C9.10835 11.4175 9.13002 11.5867 9.18919 11.7433C9.22585 11.8383 9.30169 11.9567 9.51085 12.1492C9.72752 12.3492 10.0325 12.5808 10.4867 12.9242L10.5667 12.985C11.1667 13.44 11.5834 13.755 11.8709 14.175C12.035 14.4142 12.1642 14.675 12.2567 14.95C12.4175 15.4333 12.4175 15.955 12.4175 16.7083V18.3333C12.4175 18.4991 12.3517 18.6581 12.2345 18.7753C12.1173 18.8925 11.9583 18.9583 11.7925 18.9583C11.6268 18.9583 11.4678 18.8925 11.3506 18.7753C11.2334 18.6581 11.1675 18.4991 11.1675 18.3333V16.8083C11.1675 15.9167 11.1592 15.6125 11.0709 15.3458C11.0158 15.1809 10.9382 15.0244 10.84 14.8808C10.6817 14.6492 10.4434 14.46 9.73169 13.9208L9.70835 13.9033C9.28335 13.5817 8.93085 13.3142 8.66502 13.0692C8.38669 12.8133 8.15585 12.54 8.02169 12.1892C7.89007 11.8442 7.84376 11.4725 7.88669 11.1058C7.93002 10.7325 8.08752 10.41 8.29502 10.0942C8.49252 9.7925 8.76919 9.44583 9.10169 9.03L10.755 6.96417C10.1817 6.52833 9.55169 6.23833 8.86835 6.1675C8.81737 6.16212 8.76623 6.15823 8.71502 6.15583C8.58952 6.15291 8.46402 6.16128 8.34002 6.18083C7.45252 6.30417 6.56335 6.7975 4.63169 7.895L3.43502 8.57417C3.29092 8.65616 3.12015 8.67756 2.96027 8.63364C2.8004 8.58973 2.66452 8.4841 2.58252 8.34C2.50052 8.1959 2.47913 8.02513 2.52305 7.86525C2.56696 7.70538 2.67259 7.5695 2.81669 7.4875L4.01335 6.80833L4.14002 6.73583C5.90669 5.7325 7.01419 5.1025 8.16919 4.94333L8.16835 4.94167ZM7.69169 13.6875C7.81895 13.7936 7.89886 13.9459 7.91387 14.1109C7.92887 14.276 7.87773 14.4402 7.77169 14.5675L6.93835 15.5683L6.85752 15.665C6.32252 16.3075 5.93002 16.78 5.38169 17.0367C4.83335 17.2933 4.21919 17.2933 3.38169 17.2925H2.29169C2.12593 17.2925 1.96696 17.2267 1.84975 17.1094C1.73253 16.9922 1.66669 16.8333 1.66669 16.6675C1.66669 16.5017 1.73253 16.3428 1.84975 16.2256C1.96696 16.1083 2.12593 16.0425 2.29169 16.0425H3.25669C4.27502 16.0425 4.58669 16.0283 4.85085 15.905C5.11585 15.7808 5.32585 15.55 5.97752 14.7683L6.81085 13.7675C6.86341 13.7044 6.92789 13.6522 7.00061 13.614C7.07334 13.5758 7.15288 13.5523 7.23469 13.5449C7.31649 13.5375 7.39896 13.5462 7.47738 13.5707C7.5558 13.5952 7.62862 13.6349 7.69169 13.6875Z" fill="black"/>
</svg>
