<svg width="20" height="20" viewBox="0 0 20 20" fill="none" xmlns="http://www.w3.org/2000/svg">
<g clip-path="url(#clip0_15_49618)">
<path fill-rule="evenodd" clip-rule="evenodd" d="M12.4984 0.918335C12.2446 0.918335 12.0013 1.01913 11.8219 1.19854C11.6425 1.37795 11.5417 1.62128 11.5417 1.875C11.5417 2.19147 11.7547 2.5375 12.0646 2.85232C12.2098 2.99974 12.3567 3.12048 12.468 3.20452C12.479 3.21282 12.4896 3.22074 12.4998 3.22826C12.5098 3.22085 12.5202 3.21305 12.531 3.20488C12.642 3.12087 12.7885 3.00016 12.9333 2.85277C13.2423 2.53811 13.455 2.19195 13.455 1.875C13.455 1.62128 13.3542 1.37795 13.1748 1.19854C12.9954 1.01913 12.7521 0.918335 12.4984 0.918335ZM12.375 3.75C12.11 4.174 12.1099 4.17392 12.1098 4.17385L12.1088 4.17326L12.1072 4.17221L12.1024 4.16917L12.0872 4.15941C12.0748 4.15128 12.0576 4.13992 12.0363 4.12547C11.994 4.09661 11.9351 4.05522 11.8654 4.00252C11.7266 3.89775 11.5403 3.74505 11.3521 3.55393C10.9954 3.19167 10.5417 2.6002 10.5417 1.875C10.5417 1.35606 10.7478 0.858376 11.1148 0.491429C11.4817 0.124483 11.9794 -0.081665 12.4984 -0.081665C13.0173 -0.081665 13.515 0.124483 13.8819 0.491429C14.2489 0.858375 14.455 1.35606 14.455 1.875C14.455 2.59972 14.0027 3.19106 13.6467 3.55348C13.459 3.74464 13.2731 3.89736 13.1346 4.00215C13.065 4.05487 13.0063 4.09627 12.964 4.12514C12.9429 4.1396 12.9257 4.15097 12.9132 4.1591L12.8981 4.16887L12.8933 4.17191L12.8917 4.17296L12.8907 4.17355C12.8906 4.17363 12.8905 4.1737 12.625 3.75L12.8907 4.17355L12.7687 4.25H12.2316L12.1098 4.17385L12.375 3.75ZM10.231 5.3691C10.7917 5.14483 11.5852 4.91667 12.5 4.91667C13.4148 4.91667 14.2084 5.14483 14.769 5.3691C15.0505 5.48169 15.2769 5.59472 15.4348 5.68085C15.5138 5.72396 15.576 5.7605 15.6197 5.7871C15.6416 5.8004 15.6588 5.81123 15.6713 5.81918L15.6863 5.82889L15.6911 5.83203L15.6928 5.83316L15.6938 5.8338C15.6939 5.83389 15.694 5.83398 15.4167 6.25L15.6938 5.8338L15.8549 5.9412L16.6404 9.08333H17.4167V6.66667H18.4167V12.5H17.4167V10.0833H10.8334V9.08333H15.6096L14.9821 6.57314C14.9737 6.56847 14.9649 6.56367 14.9559 6.55874C14.8273 6.48861 14.637 6.39331 14.3977 6.29757C13.9167 6.10517 13.2519 5.91667 12.5 5.91667C11.7482 5.91667 11.0834 6.10517 10.6024 6.29757C10.363 6.39331 10.1727 6.48861 10.0441 6.55874C10.0351 6.56367 10.0264 6.56847 10.018 6.57314L9.86009 7.2046L8.88995 6.96207L9.14517 5.9412L9.306 5.83398L9.58335 6.25C9.306 5.83398 9.30587 5.83407 9.306 5.83398L9.30724 5.83316L9.30894 5.83203L9.31372 5.82889L9.32878 5.81918C9.34123 5.81123 9.35849 5.8004 9.38035 5.7871C9.42404 5.7605 9.48624 5.72396 9.56528 5.68085C9.72317 5.59472 9.9495 5.48169 10.231 5.3691ZM7.49835 8.41833C7.24463 8.41833 7.0013 8.51913 6.82189 8.69854C6.64248 8.87795 6.54169 9.12128 6.54169 9.375C6.54169 9.69147 6.75466 10.0375 7.06464 10.3523C7.20978 10.4997 7.35674 10.6205 7.46802 10.7045C7.47902 10.7128 7.48962 10.7207 7.4998 10.7283C7.50981 10.7208 7.52023 10.7131 7.53102 10.7049C7.64199 10.6209 7.78854 10.5002 7.9333 10.3528C8.24234 10.0381 8.45502 9.69195 8.45502 9.375C8.45502 9.12128 8.35423 8.87795 8.17482 8.69854C7.99541 8.51913 7.75208 8.41833 7.49835 8.41833ZM7.37502 11.25C7.11002 11.674 7.1099 11.6739 7.10977 11.6738L7.10717 11.6722L7.10239 11.6692L7.08725 11.6594C7.07476 11.6513 7.05757 11.6399 7.03635 11.6255C6.99395 11.5966 6.93514 11.5552 6.86536 11.5025C6.72663 11.3978 6.54026 11.2451 6.35207 11.0539C5.99538 10.6917 5.54169 10.1002 5.54169 9.375C5.54169 8.85606 5.74783 8.35838 6.11478 7.99143C6.48173 7.62448 6.97941 7.41833 7.49835 7.41833C8.01729 7.41833 8.51498 7.62448 8.88193 7.99143C9.24887 8.35838 9.45502 8.85606 9.45502 9.375C9.45502 10.0997 9.0027 10.6911 8.64674 11.0535C8.459 11.2446 8.27305 11.3974 8.13464 11.5022C8.06502 11.5549 8.00634 11.5963 7.96403 11.6251C7.94285 11.6396 7.9257 11.651 7.91324 11.6591L7.89812 11.6689L7.89334 11.6719L7.89167 11.673L7.89074 11.6735C7.89062 11.6736 7.8905 11.6737 7.62502 11.25L7.89074 11.6735L7.76872 11.75H7.23162L7.10977 11.6738L7.37502 11.25ZM19.0834 11.6667V7.5H20.0834V11.6667H19.0834ZM5.23099 12.8691C5.79165 12.6448 6.58521 12.4167 7.50002 12.4167C8.41483 12.4167 9.20839 12.6448 9.76905 12.8691C10.0505 12.9817 10.2769 13.0947 10.4348 13.1808C10.5138 13.224 10.576 13.2605 10.6197 13.2871C10.6416 13.3004 10.6588 13.3112 10.6713 13.3192L10.6863 13.3289L10.6911 13.332L10.6928 13.3332L10.6938 13.3338C10.6939 13.3339 10.694 13.334 10.4167 13.75L10.6938 13.3338L10.8549 13.4412L11.6404 16.5833H12.4167V14.1667H13.4167V20H12.4167V17.5833H2.58335V20H1.58335V14.1667H2.58335V16.5833H3.35963L4.14517 13.4412L4.306 13.334L4.58335 13.75C4.306 13.334 4.30587 13.3341 4.306 13.334L4.30724 13.3332L4.30894 13.332L4.31372 13.3289L4.32878 13.3192C4.34123 13.3112 4.35849 13.3004 4.38035 13.2871C4.42404 13.2605 4.48624 13.224 4.56528 13.1808C4.72317 13.0947 4.9495 12.9817 5.23099 12.8691ZM5.01796 14.0731L4.39041 16.5833H10.6096L9.98208 14.0731C9.97367 14.0685 9.96494 14.0637 9.95591 14.0587C9.82734 13.9886 9.637 13.8933 9.39766 13.7976C8.91665 13.6052 8.25188 13.4167 7.50002 13.4167C6.74816 13.4167 6.08339 13.6052 5.60238 13.7976C5.36304 13.8933 5.1727 13.9886 5.04413 14.0587C5.0351 14.0637 5.02637 14.0685 5.01796 14.0731ZM-0.083313 19.1667V15H0.916687V19.1667H-0.083313ZM14.0834 19.1667V15H15.0834V19.1667H14.0834Z" fill="black"/>
</g>
<defs>
<clipPath id="clip0_15_49618">
<rect width="20" height="20" fill="white"/>
</clipPath>
</defs>
</svg>
